# xmcd
#
# Track frame offsets:
#	150
#	6756
#	25281
#	43677
#	58848
#	87900
#	105681
#	137300
#	163363
#	184241
#	203413
#	215382
#	237570
#	275105
#
# Disc length: 4041 seconds
#
# Revision: 1
# Processed by: cddbd v1.4PL0 Copyright (c) Steve Scherf et al.
# Submitted via: CDmax 2.0
#
DISCID=c80fc70e
DTITLE=Hot Tuna - Acoustic Hot Tuna - Live at the Tabernacle, Mt. Tabor, N
DTITLE=J - 11.29/02 - d1
DYEAR=2002
DGENRE=Blues
TTITLE0=Introduction
TTITLE1=Big River Blues
TTITLE2=How Long Blues
TTITLE3=Vampire Women
TTITLE4=Death Don't Have No Mercy
TTITLE5=Do Not Go Gentle
TTITLE6=Serpent Of Dreams
TTITLE7=New Song (For The Morning)
TTITLE8=Let's Get Together
TTITLE9=Living In The Moment
TTITLE10=Embryonic Journey
TTITLE11=Watch The North Wind Rise
TTITLE12=99 Year Blues
TTITLE13=Third Week In The Chelsea
EXTD=Hot Tuna and John Sebastian\n11-29-02\nReprise at \nThe Tabernacle \nMou
EXTD=nt Tabor, NJ\n \nw/Michael Falzarano \nOpening act: John Sebastian \n\nD
EXTD=AUD>DAT>CDR\n\nNueman KM140 FOB split 15 feet>V2>\nAD2K+(16bit/14Khz/16N
EXTD=N2)>\nDA-P1>Dat>Sek'd Prodif Pro>Wav>\nshn>wav>CDWAV>CDRDAUD>DAT>CDR>shn
EXTD=\n\nDisc One\n \n01. Introduction\n02. Big River Blues\n03. How Long Blu
EXTD=es\n04. Vampire Women\n05. Death Don't Have No Mercy\n06. Do Not Go Gent
EXTD=le\n07. Serpent Of Dreams\n08. New Song (For The Morning]\n09. Let's Ge
EXTD=t Together\n10. Living In The Moment\n11. Embryonic Journey\n12. Watch T
EXTD=he North Wind Rise\n13. 99 Year Blues\n14. Third Week In The Chelsea\n\n
EXTD=Disc Two\n \n01. Blue Railroad Train *\n02. I Know You Rider *\n03. Wait
EXTD=ing For A Train *\n04. Tom Cat Blues *\n05. I Am The Light Of This Worl
EXTD=d *\n06. Last Train Out *\n07. What Are They Doing In Heaven Today? *\n0
EXTD=8. Just Because *\n\nEncore:\n09. San Francisco Bay Blues *\n\n*w/John S
EXTD=ebastian - Harp
EXTT0=
EXTT1=
EXTT2=
EXTT3=
EXTT4=
EXTT5=
EXTT6=
EXTT7=
EXTT8=
EXTT9=
EXTT10=
EXTT11=
EXTT12=
EXTT13=
PLAYORDER=
